# xmcd
#
# Track frame offsets: 
#        182
#        17547
#        28905
#        41487
#        54635
#        65642
#        75945
#        87355
#        99135
#        111262
#        122297
#        134660
#        146280
#
# Disc length: 2106 seconds
#
# Revision: 3
# Processed by: cddbd v1.5.2PL0 Copyright (c) Steve Scherf et al.
# Submitted via: ExactAudioCopy v0.95b4
#
DISCID=a208380d
DTITLE=Brook Benton - A Rainy Night in Georgia
DYEAR=1992
DGENRE=Soul
TTITLE0=A Rainy Night in Georgia
TTITLE1=It's Just a Matter of Time
TTITLE2=The Boll Weevil Song
TTITLE3=Baby (You've Got What it Takes)
TTITLE4=A Rockin' Good Way
TTITLE5=Lie to Me
TTITLE6=So Many Ways
TTITLE7=Hotel Happiness
TTITLE8=Kiddio
TTITLE9=Endlessly
TTITLE10=Revenge
TTITLE11=The Same One
TTITLE12=Think Twice
EXTD=
EXTT0=
EXTT1=
EXTT2=
EXTT3=
EXTT4=
EXTT5=
EXTT6=
EXTT7=
EXTT8=
EXTT9=
EXTT10=
EXTT11=
EXTT12=
PLAYORDER=
